<svg id="Layer_1" data-name="Layer 1" xmlns="http://www.w3.org/2000/svg" viewBox="0 0 351 107" style="fill:#ffffff">
	<title>
		Movestic logo
	</title>
	<path d="M57.33,70.68V37.05c0-3.65-1.62-6.09-4.87-6.09-4.57,0-6.61,5.89-6.61,9.65V70.68H32V36.85c0-3.66-1.63-6.09-4.88-6.09-4.57,0-6.71,5.89-6.71,9.75V70.68H6.64V21.92H18.53l.91,10C22.39,24.55,27.06,21,33.16,21c5.89,0,10,4,11.47,10.25C47.79,24.05,52.25,21,58.45,21c8.43,0,12.7,5.89,12.7,14.92V70.68Z" />
	<path d="M96.85,71.49c-12.2,0-20.73-6.81-20.73-19.3V40.41C76.12,28,84.65,21,96.85,21s20.82,7,20.82,19.4V52.19C117.67,64.68,109,71.49,96.85,71.49Zm7.41-33.12c0-4.87-2.74-7.61-7.41-7.61s-7.42,2.74-7.42,7.61V54.12c0,5,2.74,7.62,7.42,7.62s7.41-2.64,7.41-7.62Z" />
	<path d="M145.81,70.68H134L117.77,21.92h13.82l6.39,24,2.45,9.45,2.33-9.45,6.3-24h13.11Z" />
	<path d="M182.78,71.49c-12.29,0-20.61-7.71-20.61-18.9V40.1C162.17,29,170.29,21,182.68,21s20,7.92,20,19v7.72H175.47v6.81c0,4.26,2.74,7.31,8.13,7.31,5,0,7.42-2.84,7.42-6.4V53.61h11.67v.71C202.69,65.19,194.46,71.49,182.78,71.49Zm7.32-33.93c0-3.86-2.85-6.8-7.32-6.8s-7.31,2.84-7.31,6.8v5H190.1Z" />
	<path d="M226.87,71.49c-12.59,0-20-6.71-20-15.64V54.12h11.59V55c0,4.88,3.56,6.81,8.12,6.81,4.77,0,6.91-1.83,6.91-5,0-8.74-25.49-4.47-25.49-20.93C208,27.41,215.49,21,227,21c11.78,0,18.57,6.9,18.57,16v.72H234V36.65c0-3.46-2.64-5.89-6.89-5.89-4.08,0-6.52,1.72-6.52,4.26,0,8.13,25.51,4.78,25.51,21.43C246.07,63.67,240.28,71.49,226.87,71.49Z" />
	<path d="M269.73,32.58v23c0,6,1.12,10.87,4.16,15.14H259.17c-2.44-3.86-3.15-8.23-3.15-15.14v-23h-7.31V22.43h7.71V13.48l13.31-3.24V22.43h9.06V32.58Z" />
	<path d="M283.55,70.68V21.92h13.81V70.68Zm.3-55.57v-11h13.21v11Z" />
	<path d="M323.16,71.49c-12.29,0-20.41-7.11-20.41-19.3V40.51c0-12.09,8.33-19.5,20.52-19.5,11.78,0,19.09,6.49,19.09,18.28v.81H330.78V37.56c0-4.26-2.73-6.8-7.21-6.8s-7.51,2.84-7.51,8V53.61c0,5.39,2.93,8.13,7.51,8.13,4.38,0,7.21-2.54,7.21-6.91V52.39h11.58v.92C342.36,65.09,334.85,71.49,323.16,71.49Z" />
	<path d="M135.76,96h2.54V80.56h-2.54V77.13h9.32v3.43h-3v15.5h6.14V92.91H152v6.54H135.76Z" />
	<path d="M155.67,96.37H158V87.69h-2.28V84.6h6V96.37h2.2v3.08h-8.18Zm3.74-14.05a2.38,2.38,0,0,1-1.72-.71,2.33,2.33,0,0,1-.72-1.73,2.26,2.26,0,0,1,.76-1.73,2.5,2.5,0,0,1,1.74-.71,2.4,2.4,0,0,1,1.72.71,2.33,2.33,0,0,1,.72,1.73,2.26,2.26,0,0,1-.76,1.73A2.46,2.46,0,0,1,159.41,82.32Z" />
	<path d="M167.87,87.69h-1.74V84.6h7.6v2.94H171.6l3.56,7.74,3.56-7.74h-2.24V84.6h7.57v3.09h-1.74l-5.9,12h-2.64Z" />
	<path d="M207.16,90.19a21.83,21.83,0,0,1-.84,2.41,14.79,14.79,0,0,1-1.09,2.1l3.18,2.73-2.09,2.43-3.19-2.75a10.44,10.44,0,0,1-3.16,2,10.11,10.11,0,0,1-3.77.71,11.92,11.92,0,0,1-3.42-.44,7.45,7.45,0,0,1-2.51-1.23,5.11,5.11,0,0,1-1.53-1.91,5.64,5.64,0,0,1-.51-2.42,5.56,5.56,0,0,1,1.24-3.57,9.83,9.83,0,0,1,3.17-2.5,14.69,14.69,0,0,1-1.13-1.47,6.69,6.69,0,0,1-.66-1.26,4.86,4.86,0,0,1-.32-1.15,6.18,6.18,0,0,1-.09-1,4.82,4.82,0,0,1,.41-1.9A5.32,5.32,0,0,1,192,79.19a5.93,5.93,0,0,1,1.89-1.25,7.17,7.17,0,0,1,2.63-.47A6.79,6.79,0,0,1,201,78.86a4.61,4.61,0,0,1,1.65,3.72,4.78,4.78,0,0,1-1.32,3.5,11.5,11.5,0,0,1-3.36,2.3l1,.89,3.91,3.54a12.22,12.22,0,0,0,1.23-2.68h-1.78v-3h6.76v3.08Zm-11,6.53a7,7,0,0,0,4.45-1.57l-3.87-3.57c-.41-.35-.79-.7-1.13-1s-.68-.63-1-.91a6.12,6.12,0,0,0-1.85,1.58,3.62,3.62,0,0,0-.76,2.28,2.61,2.61,0,0,0,.27,1.14,3.6,3.6,0,0,0,.79,1,4.68,4.68,0,0,0,1.31.74A4.89,4.89,0,0,0,196.2,96.72Zm-2-13.85a5.43,5.43,0,0,0,0,.67,2.86,2.86,0,0,0,.24.81,6.55,6.55,0,0,0,.53,1c.24.36.56.78.93,1.23a7.14,7.14,0,0,0,2.08-1.5,3.44,3.44,0,0,0,.88-2.47,2.2,2.2,0,0,0-2.38-2.24,2.11,2.11,0,0,0-1,.23,3.16,3.16,0,0,0-.75.59,2.78,2.78,0,0,0-.46.8A3,3,0,0,0,194.21,82.87Z" />
	<path d="M214.27,96h2.55V80.56h-2.55V77.13h9a10.71,10.71,0,0,1,3.33.51,8.72,8.72,0,0,1,2.7,1.44,6.75,6.75,0,0,1,1.77,2.29,6.93,6.93,0,0,1,.66,3,7.93,7.93,0,0,1-.66,3.36,6.42,6.42,0,0,1-1.82,2.38,7.92,7.92,0,0,1-2.81,1.42,12.93,12.93,0,0,1-3.61.47h-1.29l-.88,0v4h2.78v3.42h-9.16Zm8.89-7.33a4.71,4.71,0,0,0,3.37-1.14,4.07,4.07,0,0,0,1.21-3.14,3.4,3.4,0,0,0-1.31-2.81,5.22,5.22,0,0,0-3.37-1h-2.41v8.08l.81,0Z" />
	<path d="M238.83,93.28a3.76,3.76,0,0,0,1.71,2.56,6,6,0,0,0,3.18.8,9.34,9.34,0,0,0,2.73-.42A11,11,0,0,0,249.11,95l-.31,3.34a10.9,10.9,0,0,1-5.62,1.35,9.59,9.59,0,0,1-3.34-.55,7.4,7.4,0,0,1-2.6-1.56,6.81,6.81,0,0,1-1.67-2.43,7.88,7.88,0,0,1-.6-3.14,8.42,8.42,0,0,1,.52-3A7.65,7.65,0,0,1,237,86.61a7,7,0,0,1,2.38-1.67,7.49,7.49,0,0,1,3.12-.62,8.28,8.28,0,0,1,3.13.56,7.07,7.07,0,0,1,2.27,1.52,6.22,6.22,0,0,1,1.36,2.28,8,8,0,0,1,.46,2.77c0,.3,0,.6-.05,1a8.41,8.41,0,0,1-.11.88Zm3.64-6a3.64,3.64,0,0,0-3.67,3.4H246a3.63,3.63,0,0,0-1-2.47A3.49,3.49,0,0,0,242.47,87.31Z" />
	<path d="M259.09,87a16.47,16.47,0,0,1,2.34-1.84,5.23,5.23,0,0,1,2.86-.8,4.89,4.89,0,0,1,2.29.51,4,4,0,0,1,1.53,1.39,5.56,5.56,0,0,1,.79,3v7.1h2.2v3.08h-7.92V96.37h2V90.18a3.31,3.31,0,0,0-.3-1.52,1.86,1.86,0,0,0-1.83-1,4.25,4.25,0,0,0-2,.49,9.68,9.68,0,0,0-1.87,1.22v7h2v3.08h-7.94V96.37h2.21V87.72h-2.21V84.6h5.76Z" />
	<path d="M286.69,87.88a2.13,2.13,0,0,1-.51,1.45,1.71,1.71,0,0,1-1.33.56,2.08,2.08,0,0,1-1.43-.5,1.62,1.62,0,0,1-.56-1.33v-.32a1.26,1.26,0,0,1,.05-.33,5.57,5.57,0,0,0-2.1-.37,3,3,0,0,0-1.86.48,1.34,1.34,0,0,0-.6,1,1.16,1.16,0,0,0,.69,1,12.52,12.52,0,0,0,2.42.87q1.32.38,2.37.72a7.72,7.72,0,0,1,1.8.86,3.65,3.65,0,0,1,1.08,1.22,3.56,3.56,0,0,1,.38,1.72,4,4,0,0,1-.51,2.05,4.5,4.5,0,0,1-1.38,1.5,5.85,5.85,0,0,1-2,.91,9,9,0,0,1-2.4.31,11.13,11.13,0,0,1-1.71-.13,11.76,11.76,0,0,1-1.63-.4,8.55,8.55,0,0,1-1.37-.58,3.37,3.37,0,0,1-1-.7,2.63,2.63,0,0,1-.84-2,2,2,0,0,1,.53-1.41,1.84,1.84,0,0,1,1.43-.59,2.25,2.25,0,0,1,1.4.49,1.8,1.8,0,0,1,.6,1.48,2.72,2.72,0,0,1,0,.3,2,2,0,0,1-.06.3,7.08,7.08,0,0,0,1.21.35,7.69,7.69,0,0,0,1.48.13,4.35,4.35,0,0,0,1.9-.38,1.28,1.28,0,0,0,.81-1.22,1.11,1.11,0,0,0-.61-.92,9,9,0,0,0-2.31-.86c-1-.27-1.9-.55-2.63-.82a7.7,7.7,0,0,1-1.82-.93,3.56,3.56,0,0,1-1.05-1.23,3.64,3.64,0,0,1-.34-1.64,4.28,4.28,0,0,1,.35-1.7,4.41,4.41,0,0,1,1.12-1.53,5.48,5.48,0,0,1,1.89-1.08,7.94,7.94,0,0,1,2.72-.41,9.19,9.19,0,0,1,2.78.46A5.43,5.43,0,0,1,285.88,86,2.61,2.61,0,0,1,286.69,87.88Z" />
	<path d="M291.05,96.37h2.26V87.69h-2.26V84.6h6V96.37h2.2v3.08h-8.16Zm3.72-14.05a2.46,2.46,0,0,1-2.44-2.44,2.29,2.29,0,0,1,.75-1.73,2.55,2.55,0,0,1,1.76-.71,2.38,2.38,0,0,1,1.71.71,2.34,2.34,0,0,1,.73,1.73,2.3,2.3,0,0,1-.76,1.73A2.48,2.48,0,0,1,294.77,82.32Z" />
	<path d="M310.86,99.73a8.43,8.43,0,0,1-3.32-.63A7.3,7.3,0,0,1,303.49,95a8.13,8.13,0,0,1-.53-3,7.77,7.77,0,0,1,.55-2.92,7.86,7.86,0,0,1,1.58-2.46,7.5,7.5,0,0,1,2.47-1.7,8.93,8.93,0,0,1,6.59,0,7.58,7.58,0,0,1,2.51,1.68,7.67,7.67,0,0,1,1.57,2.45,8.3,8.3,0,0,1,.53,3,7.61,7.61,0,0,1-.56,2.91,8.11,8.11,0,0,1-1.57,2.47,7.32,7.32,0,0,1-2.49,1.69A8.17,8.17,0,0,1,310.86,99.73Zm0-3.09a3.84,3.84,0,0,0,2.94-1.29,4.41,4.41,0,0,0,.86-1.46,5.95,5.95,0,0,0,0-3.73,4.41,4.41,0,0,0-.86-1.46,3.84,3.84,0,0,0-2.94-1.29,3.91,3.91,0,0,0-1.66.34,4.19,4.19,0,0,0-1.3,1,4.54,4.54,0,0,0-.84,1.46,5.77,5.77,0,0,0,0,3.73,4.54,4.54,0,0,0,.84,1.46,4.19,4.19,0,0,0,1.3,1A3.91,3.91,0,0,0,310.86,96.64Z" />
	<path d="M328.23,87a16.3,16.3,0,0,1,2.32-1.84,5.31,5.31,0,0,1,2.87-.8,4.91,4.91,0,0,1,2.3.51,4.18,4.18,0,0,1,1.53,1.39,5.56,5.56,0,0,1,.79,3v7.1h2.2v3.08H332.3V96.37h2V90.18a3.18,3.18,0,0,0-.31-1.52,1.86,1.86,0,0,0-1.83-1,4.38,4.38,0,0,0-2,.49,9.61,9.61,0,0,0-1.86,1.22v7h2v3.08h-7.94V96.37h2.21V87.72h-2.21V84.6h5.77Z" />
</svg>
